<svg width="125" height="24" viewBox="0 0 125 24" fill="none" xmlns="http://www.w3.org/2000/svg">
<path d="M43.232 17.4042L36.56 5.88417H38.576L44.096 15.4522L49.584 5.88417H51.6L44.944 17.4042H43.232ZM52.9414 17.4042V8.12417H54.6694V17.4042H52.9414ZM52.9414 6.81217V5.08417H54.6694V6.81217H52.9414ZM58.521 17.4042C58.137 17.4042 57.7903 17.3082 57.481 17.1162C57.1717 16.9242 56.921 16.6735 56.729 16.3642C56.537 16.0548 56.441 15.7082 56.441 15.3242V10.2042C56.441 9.82017 56.537 9.47351 56.729 9.16417C56.921 8.85484 57.1717 8.60417 57.481 8.41217C57.7903 8.22017 58.137 8.12417 58.521 8.12417H63.801C64.185 8.12417 64.5317 8.22017 64.841 8.41217C65.161 8.59351 65.4117 8.84417 65.593 9.16417C65.785 9.48417 65.881 9.83084 65.881 10.2042V13.6282H58.169V15.2762C58.169 15.3828 58.2063 15.4788 58.281 15.5642C58.3663 15.6388 58.4623 15.6762 58.569 15.6762H65.881V17.4042H58.521ZM58.169 12.0122H64.137V10.2522C64.137 10.1455 64.0997 10.0548 64.025 9.98017C63.9503 9.89484 63.8597 9.85217 63.753 9.85217H58.569C58.4623 9.85217 58.3663 9.89484 58.281 9.98017C58.2063 10.0548 58.169 10.1455 58.169 10.2522V12.0122ZM70.3643 17.4042L66.7163 8.12417H68.5563L71.0683 14.2682L73.7403 8.12417H75.7083L78.5403 14.2842L80.8923 8.12417H82.7323L79.2443 17.4042H77.8363L74.7323 10.5242L71.7723 17.4042H70.3643ZM88.7241 17.4042V5.88417H90.7881L98.5001 15.0682V5.88417H100.244V17.4042H98.1801L90.4521 8.20417V17.4042H88.7241ZM102.069 17.4042V5.88417H112.629V7.61217H103.813V10.7802H110.901V12.5082H103.813V17.4042H102.069ZM118.075 17.4042V7.61217H113.179V5.88417H124.699V7.61217H119.803V17.4042H118.075Z" fill="white"/>
<g clip-path="url(#clip0_4_140)">
<path d="M12 3.00003C17.392 3.00003 21.878 6.88003 22.819 12C21.879 17.12 17.392 21 12 21C6.60795 21 2.12195 17.12 1.18095 12C2.12095 6.88003 6.60795 3.00003 12 3.00003ZM12 19C14.0394 18.9996 16.0183 18.3069 17.6128 17.0352C19.2073 15.7635 20.3229 13.9883 20.777 12C20.3212 10.0133 19.2049 8.24004 17.6106 6.97006C16.0163 5.70008 14.0383 5.00856 12 5.00856C9.96165 5.00856 7.98364 5.70008 6.38933 6.97006C4.79502 8.24004 3.67872 10.0133 3.22295 12C3.67705 13.9883 4.79263 15.7635 6.3871 17.0352C7.98157 18.3069 9.96049 18.9996 12 19ZM12 16.5C10.8065 16.5 9.66189 16.0259 8.81798 15.182C7.97406 14.3381 7.49996 13.1935 7.49996 12C7.49996 10.8066 7.97406 9.66196 8.81798 8.81805C9.66189 7.97414 10.8065 7.50003 12 7.50003C13.1934 7.50003 14.338 7.97414 15.1819 8.81805C16.0258 9.66196 16.5 10.8066 16.5 12C16.5 13.1935 16.0258 14.3381 15.1819 15.182C14.338 16.0259 13.1934 16.5 12 16.5ZM12 14.5C12.663 14.5 13.2989 14.2366 13.7677 13.7678C14.2366 13.299 14.5 12.6631 14.5 12C14.5 11.337 14.2366 10.7011 13.7677 10.2323C13.2989 9.76342 12.663 9.50003 12 9.50003C11.3369 9.50003 10.701 9.76342 10.2322 10.2323C9.76335 10.7011 9.49996 11.337 9.49996 12C9.49996 12.6631 9.76335 13.299 10.2322 13.7678C10.701 14.2366 11.3369 14.5 12 14.5Z" fill="white"/>
</g>
<defs>
<clipPath id="clip0_4_140">
<rect width="24" height="24" fill="white"/>
</clipPath>
</defs>
</svg>
