<svg width="90" height="17" viewBox="0 0 90 17" fill="none" xmlns="http://www.w3.org/2000/svg">
<path d="M0.0620001 13V0.0399995H9.998C10.454 0.0399995 10.868 0.153999 11.24 0.381999C11.624 0.609999 11.93 0.915999 12.158 1.3C12.386 1.672 12.5 2.086 12.5 2.542V5.08C12.5 5.236 12.488 5.386 12.464 5.53C12.44 5.674 12.398 5.812 12.338 5.944C12.542 6.22 12.704 6.508 12.824 6.808C12.956 7.108 13.022 7.408 13.022 7.708V10.498C13.022 10.954 12.908 11.374 12.68 11.758C12.452 12.13 12.146 12.43 11.762 12.658C11.378 12.886 10.958 13 10.502 13H0.0620001ZM2.654 10.606H10.394C10.454 10.606 10.508 10.588 10.556 10.552C10.604 10.504 10.628 10.45 10.628 10.39V7.816C10.628 7.756 10.604 7.708 10.556 7.672C10.508 7.624 10.454 7.6 10.394 7.6H2.654C2.594 7.6 2.54 7.624 2.492 7.672C2.456 7.708 2.438 7.756 2.438 7.816V10.39C2.438 10.45 2.456 10.504 2.492 10.552C2.54 10.588 2.594 10.606 2.654 10.606ZM2.654 5.206H9.89C9.95 5.206 9.998 5.188 10.034 5.152C10.07 5.104 10.088 5.05 10.088 4.99V2.65C10.088 2.59 10.07 2.542 10.034 2.506C9.998 2.458 9.95 2.434 9.89 2.434H2.654C2.594 2.434 2.54 2.458 2.492 2.506C2.456 2.542 2.438 2.59 2.438 2.65V4.99C2.438 5.05 2.456 5.104 2.492 5.152C2.54 5.188 2.594 5.206 2.654 5.206ZM17.4146 13C16.9586 13 16.5386 12.886 16.1546 12.658C15.7826 12.43 15.4826 12.13 15.2546 11.758C15.0386 11.386 14.9306 10.972 14.9306 10.516V2.56H17.2886V10.426C17.2886 10.486 17.3066 10.54 17.3426 10.588C17.3906 10.624 17.4446 10.642 17.5046 10.642H22.9586C23.0186 10.642 23.0666 10.624 23.1026 10.588C23.1506 10.54 23.1746 10.486 23.1746 10.426V2.56H25.5326V10.516C25.5326 10.972 25.4186 11.386 25.1906 11.758C24.9746 12.13 24.6806 12.43 24.3086 12.658C23.9366 12.886 23.5166 13 23.0486 13H17.4146ZM28.9942 16.87V14.494H35.2762C35.3362 14.494 35.3842 14.47 35.4202 14.422C35.4682 14.386 35.4922 14.338 35.4922 14.278V13H29.7322C29.2882 13 28.8742 12.886 28.4902 12.658C28.1182 12.43 27.8182 12.13 27.5902 11.758C27.3622 11.386 27.2482 10.972 27.2482 10.516V2.596H29.6062V10.426C29.6062 10.486 29.6242 10.54 29.6602 10.588C29.7082 10.624 29.7622 10.642 29.8222 10.642H35.2762C35.3362 10.642 35.3842 10.624 35.4202 10.588C35.4682 10.54 35.4922 10.486 35.4922 10.426V2.596H37.8502V14.386C37.8502 14.842 37.7422 15.256 37.5262 15.628C37.3102 16.012 37.0102 16.312 36.6262 16.528C36.2542 16.756 35.8402 16.87 35.3842 16.87H28.9942ZM45.3244 13V0.0399995H47.9344L55.8904 9.508V0.0399995H58.2844V13H55.6744L47.7004 3.514V13H45.3244ZM62.695 13C62.239 13 61.825 12.886 61.453 12.658C61.081 12.43 60.781 12.13 60.553 11.758C60.325 11.386 60.211 10.972 60.211 10.516V5.044C60.211 4.588 60.325 4.174 60.553 3.802C60.781 3.43 61.081 3.13 61.453 2.902C61.825 2.674 62.239 2.56 62.695 2.56H68.329C68.785 2.56 69.199 2.674 69.571 2.902C69.955 3.13 70.255 3.43 70.471 3.802C70.699 4.174 70.813 4.588 70.813 5.044V10.516C70.813 10.972 70.699 11.386 70.471 11.758C70.255 12.13 69.961 12.43 69.589 12.658C69.217 12.886 68.797 13 68.329 13H62.695ZM62.785 10.642H68.239C68.299 10.642 68.347 10.624 68.383 10.588C68.431 10.54 68.455 10.486 68.455 10.426V5.134C68.455 5.074 68.431 5.026 68.383 4.99C68.347 4.942 68.299 4.918 68.239 4.918H62.785C62.725 4.918 62.671 4.942 62.623 4.99C62.587 5.026 62.569 5.074 62.569 5.134V10.426C62.569 10.486 62.587 10.54 62.623 10.588C62.671 10.624 62.725 10.642 62.785 10.642ZM75.4176 13L71.3136 2.56H73.8156L76.3536 8.716L79.0176 2.56H81.4656L84.3096 8.752L86.6676 2.56H89.1696L85.2456 13H83.4096L80.2596 6.034L77.2536 13H75.4176Z" fill="#252525"/>
</svg>
